<svg width="26" height="26" viewBox="0 0 26 26" fill="none" xmlns="http://www.w3.org/2000/svg">
<path fill-rule="evenodd" clip-rule="evenodd" d="M19.0695 0.670807H7.13858C2.79368 0.670807 0.340803 3.09244 0.328028 7.36198V19.0872C0.328028 23.3555 2.79368 25.7784 7.13858 25.7784H19.0695C23.4144 25.7784 25.8788 23.3555 25.8788 19.0872V7.36198C25.8788 3.09244 23.4144 0.670807 19.0695 0.670807ZM13.0407 20.5812C12.4901 20.5812 12.0315 20.1794 11.9804 19.6396V6.84729C11.9293 6.45812 12.1196 6.0677 12.4646 5.85554C12.8235 5.64212 13.2579 5.64212 13.6016 5.85554C13.9478 6.0677 14.1381 6.45812 14.1011 6.84729V19.6396C14.0359 20.1794 13.5773 20.5812 13.0407 20.5812ZM7.16278 20.5811C6.62622 20.5811 6.16758 20.1794 6.10243 19.6396V15.5219C6.06538 15.119 6.25573 14.7436 6.60194 14.5302C6.9456 14.3168 7.37996 14.3168 7.73768 14.5302C8.08389 14.7436 8.27424 15.119 8.22314 15.5219V19.6396C8.17204 20.1794 7.7134 20.5811 7.16278 20.5811ZM17.9338 19.6396C17.9849 20.1794 18.4435 20.5811 18.9941 20.5811C19.5435 20.5811 20.0034 20.1794 20.0532 19.6396V10.9649C20.0915 10.5745 19.9012 10.1866 19.5549 9.97317C19.2113 9.75976 18.7757 9.75976 18.4307 9.97317C18.0871 10.1866 17.8941 10.5745 17.9338 10.9649V19.6396Z" fill="#555555"/>
</svg>
