<svg width="25" height="23" viewBox="0 0 25 23" fill="none" xmlns="http://www.w3.org/2000/svg">
<path fill-rule="evenodd" clip-rule="evenodd" d="M5.09877 7.13391H0.00617218C0.00617218 3.04501 2.45618 0.656338 6.60729 0.656338H17.4772C21.6283 0.656338 24.0783 3.04501 24.0783 7.08176V15.8958C24.0783 19.9326 21.6283 22.3213 17.4772 22.3213H6.60729C2.45618 22.3213 0.00617218 19.9326 0.00617218 15.8958V15.5203H5.09877C7.46226 15.5203 9.37826 13.6523 9.37826 11.348C9.37826 9.04366 7.46226 7.17563 5.09877 7.17563V7.13391ZM5.09896 8.92803H0.905058C0.408724 8.92803 0.00636482 9.32031 0.00636482 9.80422V12.85C0.0121422 13.3316 0.411137 13.7206 0.905058 13.7262H5.00267C6.19918 13.7419 7.24547 12.9432 7.51687 11.8069C7.65278 11.1016 7.46198 10.3737 6.99562 9.81846C6.52926 9.26318 5.83501 8.93725 5.09896 8.92803ZM4.91706 12.1303H4.52121C4.01306 12.1303 3.60112 11.7287 3.60112 11.2333C3.60112 10.7378 4.01306 10.3362 4.52121 10.3362H4.91706C5.1601 10.3334 5.39416 10.4256 5.56703 10.5922C5.73989 10.7588 5.83717 10.9859 5.83715 11.2228C5.83718 11.72 5.42694 12.1246 4.91706 12.1303ZM18.3757 7.13392H11.582C11.0739 7.13392 10.6619 6.73229 10.6619 6.23686C10.6619 5.74143 11.0739 5.33981 11.582 5.33981H18.3757C18.8797 5.33978 19.2899 5.73508 19.2958 6.22643C19.2958 6.72358 18.8856 7.1282 18.3757 7.13392Z" fill="white"/>
</svg>
